<svg>
    <symbol id="cart" viewBox="0 0 30 30" xmlns="http://www.w3.org/2000/svg">
        <g clip-path="url(#clip0)">
            <path d="M20.542 10.3462C20.4702 10.2564 20.3615 10.2042 20.2464 10.2042H10.1699L9.88813 8.98319C9.84847 8.81142 9.69551 8.68973 9.51923 8.68973H7.8786C7.66952 8.68973 7.5 8.85925 7.5 9.06835C7.5 9.27746 7.66952 9.44695 7.8786 9.44695H9.21804L11.1307 17.7352C11.1703 17.907 11.3233 18.0287 11.4996 18.0287H19.0853C19.2944 18.0287 19.4639 17.8592 19.4639 17.6501C19.4639 17.441 19.2944 17.2715 19.0853 17.2715H11.8008L11.5096 16.0095H19.1106C19.2877 16.0095 19.4411 15.8867 19.4799 15.714L20.6158 10.6659C20.641 10.5537 20.6139 10.4361 20.542 10.3462Z" fill="#808080"/>
            <path d="M13.0523 18.5334C12.2868 18.5334 11.6641 19.1562 11.6641 19.9217C11.6641 20.6872 12.2868 21.3099 13.0523 21.3099C13.8177 21.3099 14.4405 20.6872 14.4405 19.9217C14.4405 19.1562 13.8178 18.5334 13.0523 18.5334Z" fill="#808080"/>
            <path d="M17.5952 18.5334C16.8298 18.5334 16.207 19.1562 16.207 19.9217C16.207 20.6872 16.8298 21.3099 17.5952 21.3099C18.3607 21.3099 18.9835 20.6872 18.9835 19.9217C18.9835 19.1562 18.3607 18.5334 17.5952 18.5334Z" fill="#808080"/>
        </g>
    </symbol> 

    <symbol id="map" viewBox="0 0 30 30" xmlns="http://www.w3.org/2000/svg">
        <g clip-path="url(#clip0)">
            <path d="M18.3348 10.7564C17.444 9.86561 16.2595 9.375 14.9997 9.375C13.7399 9.375 12.5555 9.86559 11.6646 10.7564C10.7738 11.6473 10.2832 12.8316 10.2832 14.0914C10.2832 15.3513 10.7738 16.5357 11.6646 17.4265L14.7667 20.5284C14.8311 20.5928 14.9154 20.625 14.9997 20.625C15.0841 20.625 15.1684 20.5928 15.2328 20.5284L18.3347 17.4265C19.2256 16.5357 19.7161 15.3513 19.7162 14.0915C19.7161 12.8316 19.2256 11.6472 18.3348 10.7564ZM16.481 15.5726C16.0853 15.9683 15.5593 16.1862 14.9998 16.1862C14.4402 16.1862 13.9142 15.9683 13.5186 15.5727C13.1229 15.177 12.905 14.651 12.905 14.0914C12.905 13.5319 13.1229 13.0059 13.5186 12.6102C13.9142 12.2146 14.4402 11.9967 14.9998 11.9967C15.5593 11.9967 16.0853 12.2146 16.481 12.6102C16.8766 13.0059 17.0945 13.5319 17.0945 14.0914C17.0945 14.651 16.8766 15.177 16.481 15.5726Z" fill="#7F7F7F"/>
        </g>
    </symbol> 

    <symbol id="logo" viewBox="0 0 97 21" xmlns="http://www.w3.org/2000/svg">
        <g>
            <path fill-rule="evenodd" clip-rule="evenodd" d="M70.7791 11.0044C70.7791 10.1952 70.2429 9.26741 69.1705 8.23171C68.5485 7.62755 68.2375 7.21758 68.2375 6.99642V3.86233C68.2399 3.77986 68.26 3.69889 68.2964 3.62498C68.356 3.54129 68.4382 3.4765 68.5332 3.43827C68.6282 3.40003 68.7321 3.38995 68.8326 3.40921C69.2134 3.40921 69.4118 3.56025 69.4171 3.87851V5.15696H70.7791V3.86233C70.7804 3.41778 70.6202 2.98807 70.3287 2.65401C70.1295 2.45339 69.8929 2.29424 69.6325 2.18565C69.3722 2.07707 69.0931 2.02118 68.8112 2.02118C68.5293 2.02118 68.2502 2.07707 67.9899 2.18565C67.7295 2.29424 67.4929 2.45339 67.2937 2.65401C67.011 2.99213 66.857 3.42045 66.8594 3.86233V7.0126C66.8594 7.62755 67.3098 8.36657 68.2106 9.24044C68.9989 10.0172 69.3957 10.6052 69.3957 11.0206V16.1829C69.3986 16.2404 69.3897 16.298 69.3694 16.3518C69.3491 16.4057 69.3179 16.4547 69.2777 16.4958C69.1422 16.5926 68.9765 16.6366 68.8112 16.6198C68.4519 16.6198 68.275 16.458 68.2375 16.1344V14.8667H66.8594V16.1829C66.8672 16.6222 67.033 17.0438 67.3259 17.3696C67.509 17.5828 67.7379 17.7513 67.9952 17.8625C68.2525 17.9737 68.5315 18.0246 68.8112 18.0116C69.078 18.0266 69.3451 17.9865 69.5959 17.8937C69.8468 17.8009 70.0761 17.6575 70.2697 17.4721C70.4356 17.3021 70.566 17.1005 70.6535 16.8792C70.741 16.6578 70.7837 16.4211 70.7791 16.1829V11.0044ZM74.8328 11.6787V4.25072C74.8175 4.11936 74.8286 3.98626 74.8655 3.85931C74.9023 3.73236 74.9642 3.61415 75.0473 3.5117C75.1425 3.43487 75.2636 3.39814 75.3851 3.40921H76.0393V11.6787H74.8328ZM75.369 2.01748C75.1197 2.00846 74.8713 2.05177 74.6396 2.14464C74.4079 2.23751 74.198 2.37792 74.0231 2.55691C73.814 2.79524 73.656 3.07445 73.5592 3.37705C73.4623 3.67966 73.4286 3.99913 73.4601 4.31545V17.99H74.8435V13.0704H76.05V18.0062H77.4281V2.01748H75.369ZM80.0394 2.01748V18.0062H81.4335V7.79477L83.1065 10.5998V18.0062H84.4846V2.01748H83.1119V8.57155L81.4389 5.74494V2.01748H80.0394Z" fill="#DB1814"/>
            <path fill-rule="evenodd" clip-rule="evenodd" d="M87.1504 2.01747V18.0062H88.5445V7.79476L90.2175 10.5998V18.0062H91.5956V2.01747H90.2175V8.57154L88.5445 5.74493V2.01747H87.1504Z" fill="black"/>
            <path fill-rule="evenodd" clip-rule="evenodd" d="M1.64531 11.6085V4.1806C1.63015 4.05009 1.64133 3.91784 1.67819 3.79178C1.71504 3.66572 1.77681 3.54844 1.85979 3.44697C1.95583 3.36738 2.07897 3.32867 2.20297 3.33909H2.85178V11.6085H1.64531ZM2.18152 1.94736C1.9314 1.93791 1.68206 1.981 1.44941 2.07388C1.21676 2.16676 1.0059 2.30738 0.830274 2.48679C0.621718 2.7224 0.463623 2.9987 0.365837 3.29846C0.268051 3.59822 0.232668 3.91503 0.261894 4.22915V17.9199H1.64531V13.0003H2.85178V17.9361H4.23519V1.94736H2.18152ZM7.78489 1.94736V17.9361H11.903V16.5443H9.18975V1.94736H7.78489ZM18.4447 3.35527H16.8629V7.62755H18.2302V9.0031H16.8629V16.5551H18.4447V17.9468H15.4795V1.94736H18.4447V3.35527ZM24.906 7.67071L25.276 7.36323C25.4928 7.12897 25.6598 6.85265 25.7667 6.5512C25.8737 6.24975 25.9183 5.92951 25.898 5.61009V1.94736H24.5038V5.61548C24.5038 6.15491 24.1339 6.69434 23.4046 7.27153V1.94736H22.0212V17.9361H23.4046V8.87903H23.9891C24.3698 8.87903 24.5682 9.04086 24.5789 9.36452V17.9199H25.9623V9.34833C25.983 8.99333 25.8922 8.64077 25.7026 8.34063C25.513 8.04049 25.2343 7.808 24.906 7.6761V7.67071ZM33.4853 10.9343C33.4853 10.1251 32.9491 9.19909 31.8767 8.15619C31.2493 7.55203 30.9437 7.14207 30.9437 6.92629V3.77602C30.9461 3.69355 30.9662 3.61258 31.0027 3.53868C31.0623 3.45498 31.1444 3.3902 31.2394 3.35196C31.3345 3.31373 31.4384 3.30365 31.5389 3.3229C31.9196 3.3229 32.118 3.47934 32.1234 3.79221V5.08684H33.5068V3.77602C33.5108 3.33261 33.3502 2.90364 33.0564 2.5731C32.8571 2.37167 32.6202 2.21183 32.3593 2.10277C32.0984 1.99371 31.8187 1.93756 31.5362 1.93756C31.2537 1.93756 30.974 1.99371 30.7131 2.10277C30.4522 2.21183 30.2154 2.37167 30.0161 2.5731C29.7177 2.90287 29.5482 3.3302 29.5388 3.77602V6.91551C29.5388 7.52686 29.9893 8.26947 30.8901 9.14335C31.6837 9.91294 32.0805 10.5063 32.0805 10.9235V16.0912C32.0845 16.1488 32.076 16.2067 32.0556 16.2607C32.0353 16.3147 32.0035 16.3636 31.9625 16.4041C31.8271 16.5009 31.6613 16.545 31.496 16.5281C31.1314 16.5281 30.9598 16.3663 30.9223 16.0427V14.7966H29.5388V16.1074C29.5467 16.5467 29.7124 16.9683 30.0053 17.2941C30.1893 17.5077 30.4191 17.6764 30.6773 17.7876C30.9355 17.8988 31.2154 17.9496 31.496 17.9361C31.7628 17.9511 32.0299 17.911 32.2807 17.8182C32.5316 17.7254 32.7609 17.582 32.9545 17.3966C33.1207 17.228 33.2515 17.0274 33.339 16.8068C33.4265 16.5863 33.469 16.3502 33.4639 16.1128L33.4853 10.9343ZM38.4774 11.6032V4.1806C38.4617 4.04967 38.4731 3.91689 38.511 3.79063C38.5488 3.66436 38.6122 3.54735 38.6973 3.44697C38.7437 3.40746 38.7975 3.37759 38.8555 3.35908C38.9134 3.34056 38.9745 3.33377 39.0351 3.33909H39.6785V11.6085L38.4774 11.6032ZM39.0136 1.94196C38.7635 1.93252 38.5142 1.97561 38.2815 2.06849C38.0489 2.16136 37.838 2.30199 37.6624 2.48139C37.4514 2.71397 37.2902 2.98768 37.1887 3.28555C37.0872 3.58342 37.0477 3.89908 37.0726 4.21296V17.9199H38.456V13.0003H39.6785V17.9361H41.0566V1.94736L39.0136 1.94196ZM44.6224 1.94196V17.9361H46.0165V7.72465L47.7216 10.5351V17.9361H49.1051V1.94736H47.7216V8.50143L46.0433 5.68021V1.94736L44.6224 1.94196ZM55.191 16.1344C55.191 16.4041 54.9873 16.5389 54.6012 16.5389H54.0167V3.41461H54.6012C54.9765 3.41461 55.1749 3.57104 55.191 3.88391V16.1344ZM52.6494 2.04446V17.9361H54.6012C54.8691 17.9535 55.1376 17.9145 55.3897 17.8216C55.6417 17.7287 55.8717 17.584 56.065 17.3966C56.2245 17.2338 56.3501 17.0408 56.4348 16.8287C56.5195 16.6167 56.5615 16.3898 56.5584 16.1613V3.88391C56.5604 3.44861 56.4062 3.02721 56.124 2.69717C55.9346 2.48206 55.6991 2.313 55.4354 2.20274C55.1716 2.09248 54.8864 2.04389 54.6012 2.06064L52.6494 2.04446ZM62.6926 11.1285C62.6926 11.3982 62.4888 11.533 62.1081 11.533H61.5183V3.33909H62.1081C62.2086 3.31983 62.3125 3.32991 62.4075 3.36815C62.5026 3.40638 62.5847 3.47117 62.6443 3.55486C62.69 3.63142 62.7141 3.71907 62.714 3.80839L62.6926 11.1285ZM60.1349 1.95815V17.9361H61.5183V13.0326C61.8638 13.2608 62.1902 13.517 62.4942 13.7986C62.6466 14.0108 62.7171 14.2716 62.6926 14.5323V17.9361H64.0599V14.9692C64.0803 14.654 64.0377 14.3379 63.9345 14.0395C63.8314 13.7412 63.6698 13.4667 63.4593 13.2322C63.3038 13.092 63.1215 12.9355 62.9231 12.7845C63.1684 12.6931 63.3901 12.5474 63.5719 12.3584C63.736 12.1972 63.8639 12.0027 63.9472 11.7878C64.0304 11.5729 64.067 11.3426 64.0545 11.1123V3.80839C64.064 3.36694 63.9091 2.93787 63.6202 2.60546C63.4345 2.38591 63.201 2.21234 62.9378 2.09821C62.6747 1.98409 62.3889 1.93247 62.1027 1.94736L60.1349 1.95815Z" fill="black"/>
            <path fill-rule="evenodd" clip-rule="evenodd" d="M95.2779 0C95.6183 0 95.9511 0.101555 96.2341 0.291822C96.5172 0.482089 96.7378 0.752524 96.8681 1.06893C96.9984 1.38533 97.0324 1.73349 96.966 2.06938C96.8996 2.40527 96.7357 2.71381 96.495 2.95597C96.2542 3.19814 95.9476 3.36305 95.6137 3.42987C95.2798 3.49668 94.9337 3.46239 94.6192 3.33133C94.3047 3.20027 94.0359 2.97833 93.8467 2.69358C93.6576 2.40882 93.5566 2.07404 93.5566 1.73157C93.5566 1.27233 93.738 0.831897 94.0608 0.507165C94.3836 0.182433 94.8214 0 95.2779 0V0ZM95.2779 0.22656C95.5738 0.22656 95.863 0.314828 96.109 0.4802C96.355 0.645573 96.5468 0.880623 96.66 1.15563C96.7733 1.43063 96.8029 1.73324 96.7452 2.02518C96.6874 2.31713 96.5449 2.58529 96.3357 2.79577C96.1265 3.00625 95.8599 3.14959 95.5697 3.20766C95.2795 3.26573 94.9787 3.23593 94.7054 3.12202C94.432 3.00811 94.1984 2.8152 94.034 2.56771C93.8696 2.32021 93.7818 2.02923 93.7818 1.73157C93.7818 1.33242 93.9395 0.949611 94.22 0.667367C94.5006 0.385123 94.8811 0.22656 95.2779 0.22656Z" fill="black"/>
            <path fill-rule="evenodd" clip-rule="evenodd" d="M94.4593 2.36809V1.28924H94.084V1.07886H95.092V1.29463H94.7167V2.37349L94.4593 2.36809ZM95.2529 2.36809V1.07886H95.639L95.8642 1.94734L96.0894 1.07886H96.4755V2.36809H96.2342V1.36476L95.9822 2.36809H95.7355L95.4835 1.36476V2.36809H95.2529Z" fill="black"/>
            <path d="M91.6915 20.2988H0V21.0001H91.6915V20.2988Z" fill="black"/>
        </g>
    </symbol>

    <symbol id="call" viewBox="0 0 30 30" xmlns="http://www.w3.org/2000/svg">
        <g clip-path="url(#clip0)">
            <path d="M19.7223 16.7593C19.0335 16.7593 18.3572 16.6516 17.7164 16.4398C17.4023 16.3327 17.0163 16.431 16.8246 16.6278L15.5597 17.5827C14.0927 16.7997 13.1891 15.8963 12.4167 14.4403L13.3435 13.2084C13.5843 12.9679 13.6707 12.6166 13.5672 12.287C13.3545 11.6428 13.2464 10.9668 13.2464 10.2778C13.2465 9.77997 12.8415 9.375 12.3437 9.375H10.2777C9.77997 9.375 9.375 9.77997 9.375 10.2777C9.375 15.9833 14.0167 20.625 19.7223 20.625C20.2201 20.625 20.625 20.22 20.625 19.7223V17.662C20.625 17.1643 20.22 16.7593 19.7223 16.7593Z" fill="white"/>
        </g>
    </symbol>
    <symbol id="kitchen" viewBox="0 0 46 46" xmlns="http://www.w3.org/2000/svg">
        <g>      
            <circle cx="23" cy="23" r="23"/>                
            <path d="M14.1363 33.2875H15.9601C16.2036 33.2875 16.401 33.0901 16.401 32.8465V31.2666H13.6953V32.8465C13.6953 33.0901 13.8927 33.2875 14.1363 33.2875Z" fill="currentColor"/>
            <path d="M30.0386 33.2875H31.8624C32.106 33.2875 32.3034 33.0901 32.3034 32.8465V31.2666H29.5977V32.8465C29.5977 33.0901 29.795 33.2875 30.0386 33.2875Z" fill="currentColor"/>
            <path d="M33.8349 26.996H12.1618C11.9369 26.996 11.7539 27.1789 11.7539 27.4038V29.5359C11.7539 29.7608 11.9369 29.9438 12.1618 29.9438H33.8349C34.0598 29.9438 34.2428 29.7608 34.2428 29.5359V27.4038C34.2428 27.1789 34.0598 26.996 33.8349 26.996Z" fill="currentColor"/>
            <path d="M13.7787 20.6915C13.578 21.1396 13.4727 21.629 13.4727 22.1348C13.4727 24.086 15.0597 25.673 17.0109 25.673H18.5988V20.7943C17.0359 20.8431 14.3602 20.8202 13.7787 20.6915ZM14.8678 22.9198C14.8678 22.5542 15.1642 22.2583 15.5293 22.2583C15.8944 22.2583 16.1907 22.5542 16.1907 22.9198V23.1676C16.1907 23.5331 15.8944 23.829 15.5293 23.829C15.1642 23.829 14.8678 23.5331 14.8678 23.1676V22.9198Z" fill="currentColor"/>
            <path d="M29.6048 22.135C29.6048 20.9304 29.013 19.8746 28.0856 19.229C26.864 19.6093 25.7459 19.9098 24.4785 20.1608V25.6732H26.0674C28.0188 25.6732 29.6048 24.0954 29.6048 22.135ZM26.9713 20.9686C26.9713 20.6031 27.2677 20.3071 27.6328 20.3071C27.9978 20.3071 28.2942 20.6031 28.2942 20.9686V21.2164C28.2942 21.582 27.9978 21.8779 27.6328 21.8779C27.2677 21.8779 26.9713 21.582 26.9713 21.2164V20.9686ZM25.8137 23.6637V23.4159C25.8137 23.0504 26.1101 22.7545 26.4752 22.7545C26.8404 22.7545 27.1367 23.0504 27.1367 23.4159V23.6637C27.1367 24.0294 26.8404 24.3252 26.4752 24.3252C26.1101 24.3252 25.8137 24.0294 25.8137 23.6637Z" fill="currentColor"/>
            <path d="M14.391 19.4423C14.7282 19.4551 14.9685 19.4636 15.3153 19.4727C15.1756 18.2193 15.3194 16.8785 15.6275 15.6725C15.3047 15.6483 14.9674 15.6227 14.6137 15.5958C13.5839 15.5208 12.6847 16.2622 12.5566 17.2745C12.4154 18.3868 13.2481 19.3949 14.391 19.4423Z" fill="currentColor"/>
            <path d="M16.6514 19.4952C17.3278 19.4987 17.9743 19.4907 18.5978 19.4705C18.5978 19.0852 18.5978 16.4854 18.5978 15.882C18.1013 15.8507 17.5642 15.8141 16.9724 15.7717C16.6457 16.9444 16.4872 18.2919 16.6514 19.4952Z" fill="currentColor"/>
            <path d="M26.3187 18.3699C26.0929 17.5196 25.9593 16.6234 25.8848 15.7396C25.4103 15.8133 24.9548 15.8702 24.4785 15.9142V18.8109C25.0881 18.6851 25.7028 18.5384 26.3187 18.3699Z" fill="currentColor"/>
            <path d="M27.5898 17.9987C28.1996 17.8098 28.8228 17.6032 29.4281 17.399C28.9945 16.7076 28.8011 15.9104 28.8284 15.1606C28.2181 15.2947 27.6832 15.4089 27.1934 15.5059C27.2579 16.3201 27.3799 17.2022 27.5898 17.9987Z" fill="currentColor"/>
            <path d="M32.3369 12.7257C31.1854 13.0096 30.329 13.6348 30.168 14.9812C31.4419 14.8121 32.4389 14.359 32.849 13.3205C32.9807 12.9868 32.6853 12.6398 32.3369 12.7257Z" fill="currentColor"/>
            <path d="M30.3438 16.2926C30.8498 17.541 31.832 17.9247 33.0298 17.8942C33.3892 17.885 33.5838 17.4707 33.3665 17.1843C32.6978 16.3032 31.6113 16.1219 30.3438 16.2926Z" fill="currentColor"/>
            <path d="M22.705 15.7966C21.7874 15.8157 21.1615 15.7897 20.3787 15.7582C20.1285 15.7481 19.9199 15.9483 19.9199 16.1988V25.6729H23.1548V16.2375C23.1548 15.9905 22.9519 15.7914 22.705 15.7966Z" fill="currentColor"/>
        </g>
    </symbol>
    <symbol id="pizza" viewBox="0 0 46 46" xmlns="http://www.w3.org/2000/svg">
        <g>
            <circle cx="23" cy="23" r="23"/>
            <path d="M23.0559 14.6225C23.4981 16.1843 22.6357 17.7434 21.2224 18.2768C19.5604 18.904 17.6994 17.9645 17.238 16.2238L15.1523 16.7978C14.7905 24.2968 21.7075 31.2083 29.2014 30.8468L31.0744 24.0401C29.163 23.5235 27.9463 21.5516 28.4399 19.5568C28.9355 17.5541 31.0025 16.2971 33.0484 16.8665L34.2185 12.6148C34.3582 12.1073 33.8918 11.6409 33.3843 11.7806L23.0559 14.6225ZM24.7178 17.2035C24.8997 16.8756 25.3126 16.7571 25.6401 16.9385L26.5742 17.4564C26.9021 17.6377 27.0207 18.0507 26.8388 18.3787C26.6593 18.7022 26.25 18.8266 25.9165 18.6433L24.9825 18.1259C24.6549 17.944 24.5364 17.531 24.7178 17.2035ZM19.7226 21.332H18.6547C18.2802 21.332 17.9762 21.0285 17.9762 20.6534C17.9762 20.2789 18.2802 19.975 18.6547 19.975H19.7226C20.0972 19.975 20.4012 20.2789 20.4012 20.6534C20.4012 21.0285 20.0972 21.332 19.7226 21.332ZM21.3081 23.3159C21.3081 21.9503 22.4194 20.8394 23.785 20.8394C25.1502 20.8394 26.2612 21.9503 26.2612 23.3159C26.2612 24.6815 25.1502 25.7924 23.785 25.7924C22.4194 25.7924 21.3081 24.6815 21.3081 23.3159ZM27.0523 28.6109L25.9848 28.5775C25.6102 28.5661 25.3162 28.2531 25.3275 27.8786C25.3393 27.5036 25.6518 27.2091 26.0269 27.2214L27.0944 27.2544C27.4689 27.2662 27.7629 27.5792 27.7516 27.9537C27.7405 28.2992 27.4679 28.6109 27.0523 28.6109ZM31.3047 14.5505L30.7189 15.4439C30.5138 15.7566 30.0941 15.8455 29.7799 15.6394C29.4663 15.434 29.3786 15.0133 29.584 14.6999L30.1697 13.807C30.3751 13.4935 30.7957 13.4057 31.1093 13.6111C31.4228 13.8169 31.51 14.2371 31.3047 14.5505Z" fill="currentColor"/>
            <path d="M29.3581 32.1978C20.9922 32.6612 13.3403 24.9892 13.8027 16.6424C13.8196 16.3261 13.5461 16.0666 13.2215 16.129C12.8027 16.2134 13.0416 16.1652 12.2481 16.3253C12.0431 16.3669 11.8875 16.532 11.8618 16.7365C10.6657 26.2122 19.7965 35.3336 29.264 34.1387C29.4684 34.1129 29.6335 33.9573 29.6752 33.7525C29.8347 32.9618 29.7868 33.199 29.8715 32.779C29.9352 32.462 29.6793 32.1805 29.3581 32.1978Z" fill="currentColor"/>
            <path d="M20.724 17.0135C21.5165 16.7255 22.003 15.854 21.7492 14.9822L18.5449 15.8642C18.7834 16.8035 19.7937 17.3516 20.724 17.0135Z" fill="currentColor"/>
            <path d="M29.7364 19.9747C29.4845 21.2025 30.2296 22.4109 31.4343 22.7325L32.6885 18.1747H32.6881C31.3539 17.801 30.0077 18.6519 29.7364 19.9747Z" fill="currentColor"/>
            <path d="M23.7861 22.1964C23.1686 22.1964 22.666 22.6984 22.666 23.3159C22.666 23.9334 23.1686 24.4355 23.7861 24.4355C24.403 24.4355 24.9051 23.9334 24.9051 23.3159C24.9051 22.6985 24.403 22.1964 23.7861 22.1964Z" fill="currentColor"/>
        </g>
    </symbol>

    <symbol id="salads" viewBox="0 0 46 46" xmlns="http://www.w3.org/2000/svg">
        <g>
            <circle cx="23" cy="23" r="23"/>
            <path d="M15.1616 21.3173H30.8425C31.2683 20.2004 30.8762 18.9056 29.8265 18.2279C29.6065 18.0855 29.4909 17.8266 29.5324 17.5673C29.796 15.9201 28.4615 14.4617 26.7989 14.5803C26.4488 14.6045 26.1406 14.3523 26.096 14.0048C25.9311 12.7225 24.8305 11.7555 23.5363 11.7555C22.0033 11.7555 20.809 13.0755 20.9681 14.6089C21.0222 15.1254 20.4835 15.5023 20.0152 15.2691C18.2399 14.3837 16.1583 15.7602 16.29 17.7539C16.3045 17.9775 16.2049 18.1934 16.0254 18.3276C15.0068 19.0877 14.7732 20.3263 15.1616 21.3173ZM27.0737 19.0463L27.3664 18.7531C27.6248 18.4951 28.0438 18.4947 28.3017 18.7531C28.5601 19.0114 28.5601 19.4303 28.3017 19.6888L28.0089 19.9816C27.7516 20.2389 27.3321 20.2405 27.0732 19.9816C26.8152 19.7232 26.8152 19.3047 27.0737 19.0463ZM24.7251 16.6091C24.7251 16.244 25.0209 15.9477 25.3865 15.9477C25.7516 15.9477 26.048 16.244 26.048 16.6091V17.0236C26.048 17.3887 25.7516 17.6851 25.3865 17.6851C25.0209 17.6851 24.7251 17.3887 24.7251 17.0236V16.6091ZM18.6707 17.8914C18.9287 17.633 19.3476 17.633 19.606 17.8914L19.8992 18.1842C20.1572 18.4427 20.1572 18.8616 19.8988 19.12C19.6421 19.3775 19.2222 19.3786 18.9636 19.12L18.6707 18.8267C18.4123 18.5683 18.4123 18.1498 18.6707 17.8914Z" fill="currentColor"/>
            <path d="M19.1191 33.1089V33.8034C19.1191 34.0469 19.3165 34.2444 19.56 34.2444H26.439C26.6826 34.2444 26.88 34.0469 26.88 33.8034V33.1089C26.5647 33.1289 19.4151 33.1277 19.1191 33.1089Z" fill="currentColor"/>
            <path d="M14.4355 26.7173C14.4355 29.5225 16.7186 31.7985 19.5167 31.7985H26.483C29.2809 31.7985 31.5642 29.5227 31.5642 26.7173V25.3292H14.4355V26.7173Z" fill="currentColor"/>
            <path d="M14.4355 23.0814V24.0065H31.5642V23.0814C31.5642 22.8378 31.3667 22.6404 31.1232 22.6404H14.8765C14.633 22.6404 14.4355 22.8378 14.4355 23.0814Z" fill="currentColor"/>
        </g>
    </symbol>
    <symbol id="hat" viewBox="0 0 46 46" xmlns="http://www.w3.org/2000/svg">
        <g>
            <circle cx="23" cy="23" r="23"/>
            <path d="M17.2075 16.5224C16.9551 16.7784 16.9551 17.1935 17.2075 17.4495C17.3338 17.5776 17.4992 17.6416 17.6647 17.6416C17.8301 17.6416 17.9956 17.5775 18.1218 17.4495C18.9845 16.5747 18.9844 15.1512 18.1218 14.2764C17.7633 13.9128 17.7633 13.3212 18.1218 12.9576C18.3742 12.7015 18.3742 12.2864 18.1218 12.0304C17.8693 11.7743 17.46 11.7744 17.2075 12.0304C16.3449 12.9053 16.3449 14.3287 17.2075 15.2036C17.5661 15.5672 17.5661 16.1588 17.2075 16.5224Z" fill="currentColor"/>
            <path d="M20.7075 16.5224C20.455 16.7784 20.455 17.1935 20.7075 17.4495C20.8338 17.5775 20.9992 17.6416 21.1647 17.6416C21.3301 17.6416 21.4956 17.5775 21.6218 17.4495C22.4845 16.5747 22.4845 15.1512 21.6218 14.2764C21.2632 13.9128 21.2632 13.3211 21.6218 12.9576C21.8743 12.7015 21.8743 12.2864 21.6218 12.0304C21.3693 11.7744 20.9599 11.7744 20.7075 12.0304C19.8449 12.9052 19.8449 14.3287 20.7075 15.2035C21.066 15.5671 21.066 16.1587 20.7075 16.5224Z" fill="currentColor"/>
            <path d="M24.2096 16.5224C23.9571 16.7784 23.9571 17.1935 24.2096 17.4495C24.3358 17.5775 24.5012 17.6416 24.6667 17.6416C24.8322 17.6416 24.9976 17.5775 25.1238 17.4495C25.9866 16.5747 25.9866 15.1512 25.1238 14.2764C24.7652 13.9128 24.7652 13.3211 25.1238 12.9576C25.3763 12.7015 25.3763 12.2864 25.1238 12.0304C24.8714 11.7744 24.4621 11.7744 24.2096 12.0304C23.3468 12.9052 23.3468 14.3287 24.2096 15.2035C24.5681 15.5671 24.5681 16.1587 24.2096 16.5224Z" fill="currentColor"/>
            <path d="M29.3616 20.1579L30.9447 17.8073V17.8072L31.0945 17.9109C31.3894 18.1151 31.7916 18.038 31.993 17.7392C32.1943 17.4402 32.1185 17.0322 31.8236 16.828C31.6137 16.6826 31.082 16.3145 30.4565 15.8813C30.1617 15.6772 29.7595 15.754 29.5581 16.053C29.3567 16.352 29.4325 16.76 29.7274 16.9641L29.8771 17.0678L28.2949 19.4175C28.6849 19.5764 29.0573 19.8273 29.3616 20.1579Z" fill="currentColor"/>
            <path d="M27.592 22.8671C28.0066 22.7967 28.4277 22.8064 28.8302 22.8968C29.2721 21.1694 27.6294 19.9009 26.1309 20.8099C26.7554 21.3915 27.2558 22.0904 27.592 22.8671Z" fill="currentColor"/>
            <path d="M26.3764 23.322C25.5785 21.5546 23.6828 20.3271 21.4993 20.3271C17.0592 20.3271 13.3272 23.4976 12.9492 27.5666H24.8813C24.2716 26.0569 24.8978 24.2216 26.3764 23.322Z" fill="currentColor"/>
            <path d="M33.7422 21.4174C33.6108 21.2842 32.6724 20.3325 32.5716 20.2303C32.3191 19.9743 31.9098 19.9743 31.6573 20.2303C31.4049 20.4864 31.4049 20.9015 31.6573 21.1575L31.7855 21.2875L29.8008 23.3001C30.1726 23.5405 30.4836 23.8574 30.7145 24.2276L32.6997 22.2144L32.828 22.3445C33.0805 22.6005 33.4898 22.6005 33.7423 22.3445C33.9948 22.0885 33.9948 21.6734 33.7422 21.4174Z" fill="currentColor"/>
            <path d="M26.3858 27.5668H29.1399C30.0276 26.7704 30.1616 25.4188 29.3933 24.6397C29.3882 24.6344 29.3834 24.6296 29.3783 24.6248C27.6175 22.8835 24.7983 25.7854 26.3858 27.5668Z" fill="currentColor"/>
            <path d="M15.8928 33.5983C15.9382 33.9215 16.2111 34.1615 16.5329 34.1615H28.9564C29.2781 34.1615 29.551 33.9215 29.5964 33.5983L29.7392 32.5815H15.75L15.8928 33.5983Z" fill="currentColor"/>
            <path d="M33.3037 28.8777H12.1849C11.9469 28.8777 11.7539 29.0733 11.7539 29.3148V30.4441C11.7539 30.9004 12.1186 31.2702 12.5685 31.2702H32.9201C33.37 31.2702 33.7346 30.9004 33.7346 30.4441V29.3148C33.7346 29.0733 33.5418 28.8777 33.3037 28.8777Z" fill="currentColor"/>
        </g>
    </symbol>
     <symbol id="snack" viewBox="0 0 46 46" xmlns="http://www.w3.org/2000/svg">
        <g>
            <circle cx="23" cy="23" r="23"/>
            <path d="M33.2859 18.5864C33.0246 18.3249 32.6008 18.3249 32.3394 18.5864L28.3555 22.5707C28.7103 22.8323 29.0348 23.1555 29.301 23.5172L33.2859 19.5328C33.5468 19.2714 33.5468 18.8477 33.2859 18.5864Z" fill="currentColor"/>
            <path d="M23.489 23.9547L18.5448 28.8989C17.3213 30.1223 17.3207 32.1026 18.5448 33.3267C19.7682 34.5501 21.749 34.5505 22.9728 33.3267L27.9171 28.3824C29.1379 27.1616 29.1379 25.1754 27.9171 23.9547C26.6858 22.7251 24.7014 22.7423 23.489 23.9547ZM20.0037 29.7147C19.7428 29.4533 19.7428 29.0296 20.0037 28.7682L20.2419 28.5305C20.5033 28.2692 20.927 28.2692 21.1879 28.5305C21.4492 28.7919 21.4492 29.2152 21.1879 29.4766L20.9502 29.7147C20.6902 29.9746 20.2659 29.9769 20.0037 29.7147ZM22.0095 32.6166L21.7713 32.8547C21.5101 33.116 21.0862 33.1156 20.8253 32.8547C20.564 32.5934 20.564 32.1696 20.8253 31.9087L21.063 31.6705C21.3244 31.4091 21.7481 31.4091 22.0095 31.6705C22.2709 31.932 22.2709 32.3557 22.0095 32.6166ZM23.4265 28.0261L23.1887 28.2642C22.9285 28.5245 22.5042 28.5261 22.2423 28.2642C21.981 28.0029 21.981 27.5796 22.2423 27.3183L22.4804 27.08C22.7418 26.8187 23.1651 26.8187 23.4265 27.08C23.6879 27.3414 23.6879 27.7652 23.4265 28.0261ZM27.2547 27.8013L27.0171 28.0395C26.7551 28.3005 26.3325 28.3004 26.0706 28.0395C25.8097 27.7781 25.8097 27.3544 26.0706 27.093L26.3088 26.8552C26.5701 26.5938 26.9933 26.5938 27.2547 26.8552C27.5161 27.1162 27.5161 27.5399 27.2547 27.8013Z" fill="currentColor"/>
            <path d="M16.3515 22.2928L12.7133 25.9307C12.4524 26.1921 12.4524 26.6158 12.7133 26.8772C12.9752 27.1383 13.3978 27.1382 13.6597 26.8772L17.2971 23.2393C16.9302 22.9685 16.6119 22.6466 16.3515 22.2928Z" fill="currentColor"/>
            <path d="M22.0752 21.8552L25.8066 18.1242C25.8865 18.0444 25.8938 17.9164 25.8218 17.8295C25.1183 16.9813 24.977 15.7997 25.4542 14.8111C25.4888 14.7392 25.4818 14.6545 25.436 14.5892C24.9169 13.8498 24.7878 12.9053 25.0838 12.0535C25.1334 11.9106 25.0324 11.7622 24.8812 11.7572C24.0431 11.7294 23.2084 12.0421 22.5985 12.6519L17.7354 17.5149C16.5387 18.7116 16.5387 20.6585 17.7354 21.8553C18.9331 23.0539 20.8763 23.0551 22.0752 21.8552ZM20.4031 16.4953C20.5378 16.151 20.9263 15.9815 21.2701 16.1166L23.8919 17.1447C24.2363 17.2799 24.4057 17.6679 24.2707 18.0118C24.1348 18.3584 23.744 18.5248 23.4035 18.3904L20.7817 17.3624C20.4374 17.2272 20.2679 16.8392 20.4031 16.4953ZM18.1283 18.77C18.2631 18.4261 18.6515 18.2566 18.9954 18.3914L21.6172 19.4199C21.961 19.5545 22.1305 19.9427 21.9958 20.287C21.8598 20.6334 21.4688 20.7993 21.1288 20.6652L18.5066 19.637C18.1627 19.5024 17.9932 19.114 18.1283 18.77Z" fill="currentColor"/>
        </g>          
    </symbol>
    <symbol id="desserts" viewBox="0 0 46 46" xmlns="http://www.w3.org/2000/svg">
        <g>
            <circle cx="23" cy="23" r="23"/>
            <path d="M19.2333 28.8317C19.2332 28.8318 19.2331 28.8317 19.2331 28.8317V28.8316C19.2326 28.832 19.2322 28.8312 19.2322 28.8312V28.8313C19.0014 28.755 17.7232 27.677 15.6973 28.2096L17.4327 33.7822C17.5184 34.0574 17.77 34.2445 18.0546 34.2445H19.8759V34.2444H19.8762C19.4586 30.7302 19.5991 31.912 19.2333 28.8317Z" fill="currentColor"/>
            <path d="M26.2354 24.2548C26.2354 24.2548 26.2358 24.2548 26.2358 24.2544C27.3262 23.6453 28.5039 23.4435 29.6758 23.611C29.1653 20.7193 27.2033 18.8528 24.9705 18.1292C23.8817 19.1541 22.1811 19.042 21.2401 17.9814C18.795 18.5675 16.5579 20.4936 16.0078 23.611C17.1596 23.4457 18.3423 23.6357 19.4486 24.2544C21.6016 23.1205 24.1342 23.1433 26.2354 24.2548ZM24.9057 19.9317L25.147 19.6875C25.4013 19.4291 25.8144 19.4291 26.0693 19.6875C26.3241 19.9458 26.3241 20.3643 26.0693 20.6228L25.8279 20.8675C25.5724 21.1258 25.1604 21.1255 24.9057 20.8671C24.6508 20.6091 24.6508 20.1902 24.9057 19.9317ZM21.8097 21.3905L21.8932 21.0549C21.9814 20.7008 22.3358 20.486 22.6854 20.5755C23.0346 20.6646 23.2464 21.0244 23.1585 21.3785L23.0751 21.7137C22.9861 22.0686 22.6325 22.2828 22.2828 22.1934C21.9336 22.1044 21.7219 21.7446 21.8097 21.3905ZM19.572 20.7448L19.3307 20.5001C19.0763 20.2422 19.0763 19.8233 19.3307 19.5649C19.5855 19.3064 19.9986 19.3064 20.253 19.5649L20.4944 19.8096C20.7487 20.0676 20.7491 20.4865 20.4944 20.7448C20.241 21.0028 19.8259 21.0031 19.572 20.7448Z" fill="currentColor"/>
            <path d="M22.3116 17.1933C22.7985 17.6181 23.5184 17.627 24.0155 17.2203C24.6351 16.7117 24.6778 15.7766 24.1217 15.2126C23.6002 14.6846 22.7555 14.687 22.2372 15.2126C21.6918 15.7656 21.7214 16.6788 22.3116 17.1933Z" fill="currentColor"/>
            <path d="M30.7602 25.7332C30.8297 25.5103 30.7157 25.2699 30.4997 25.1879C28.4942 24.4272 27.1176 25.3068 26.8631 25.3727L26.8617 25.3731C26.8617 25.3731 26.864 25.3524 26.6406 27.2372C26.641 27.2367 26.6414 27.2363 26.642 27.2363C27.8164 26.6988 29.1048 26.5982 30.3824 26.9466C30.3929 26.9125 30.6165 26.195 30.7602 25.7332Z" fill="currentColor"/>
            <path d="M25.5116 14.921C26.2787 14.349 26.8853 13.5606 27.2409 12.6642C27.3757 12.3255 27.2135 11.9401 26.8795 11.8034C26.5452 11.6672 26.1656 11.8312 26.0308 12.1703C25.7485 12.882 25.2537 13.5029 24.6289 13.9341C24.9967 14.1812 25.3012 14.5164 25.5116 14.921Z" fill="currentColor"/>
            <path d="M19.0437 27.2361C19.0442 27.2361 19.0442 27.2361 19.0446 27.2365L19.0445 27.2363C19.0447 27.2363 19.0446 27.2363 19.0448 27.2364C18.8065 25.2314 18.8289 25.421 18.8239 25.3738C18.365 25.2188 17.09 24.4639 15.1855 25.1888C14.9702 25.2707 14.8573 25.5108 14.9266 25.7331C15.0003 25.9699 15.118 26.3478 15.3046 26.9473C16.5813 26.599 17.8692 26.6986 19.0437 27.2361Z" fill="currentColor"/>
            <path d="M25.5478 25.3832C23.8999 24.5453 21.9038 24.4881 20.139 25.3832V25.3833C20.1389 25.3833 20.1388 25.3833 20.1387 25.3834C20.1388 25.3838 20.3352 27.0467 20.3352 27.0467C20.3354 27.0464 20.3354 27.0465 20.3354 27.0464V27.0465C20.3358 27.0462 20.3357 27.0463 20.3358 27.0462H20.3362C21.7878 26.487 23.6456 26.4199 25.3492 27.0462C25.3497 27.0462 25.3502 27.0467 25.3506 27.0467C25.3506 27.0437 25.548 25.3895 25.548 25.3834C25.5479 25.3833 25.5479 25.3833 25.5478 25.3833V25.3832Z" fill="currentColor"/>
            <path d="M26.4526 28.8321V28.832C26.4518 28.832 26.4513 28.832 26.4509 28.8324L25.8086 34.2442H25.8088V34.2444H27.6311C27.9156 34.2444 28.1674 34.0573 28.253 33.7822L29.9889 28.2091C27.9652 27.678 26.6962 28.7511 26.4526 28.8321Z" fill="currentColor"/>
            <path d="M25.1898 28.403H25.1894C25.189 28.4026 25.1886 28.4026 25.1883 28.4026V28.4023C25.1882 28.4023 25.1882 28.4023 25.1881 28.4023V28.4022C25.1878 28.4019 25.1874 28.402 25.187 28.4019C24.1378 28.0386 22.5844 27.5027 20.4972 28.4017V28.4018C20.4971 28.4018 20.497 28.4018 20.497 28.4019V28.4021C20.4967 28.4021 20.4967 28.4021 20.4963 28.4021V28.4023C20.4962 28.4023 20.4962 28.4023 20.4961 28.4023C20.9452 32.1875 20.797 30.9384 21.189 34.2443H21.1893V34.2445H24.4966V34.2443H24.4968C24.4984 34.2299 25.19 28.4032 25.19 28.4032H25.1898V28.403Z" fill="currentColor"/>
        </g>          
    </symbol>
    <symbol id="drinks" viewBox="0 0 46 46" xmlns="http://www.w3.org/2000/svg">
        <g>
            <circle cx="23" cy="23" r="23"/>
            <path d="M28.2711 13.0732C28.6401 13.0732 28.9299 12.7832 28.9299 12.4143C28.9299 12.0453 28.6401 11.7555 28.2711 11.7555H25.6357C25.3194 11.7555 25.0559 11.9794 24.9899 12.2826L24.5684 14.4348H25.9124L26.1759 13.0732H28.2711Z" fill="currentColor"/>
            <path d="M17.3883 22.2226C17.5727 23.1844 17.8099 24.3704 18.1525 25.8199C18.2975 26.4393 18.3766 27.0981 18.3898 27.7832C18.4028 28.4553 18.2581 29.4304 18.0734 30.2474H27.93C27.7454 29.4304 27.6006 28.4553 27.6135 27.7832C27.6268 27.0981 27.7058 26.4393 27.8509 25.8199C28.1935 24.3704 28.4306 23.1844 28.6151 22.2226C28.7732 21.3792 28.826 20.549 28.7997 19.7057H23.2784L24.0163 20.4437C24.2667 20.7073 24.2667 21.1157 24.0163 21.3792L22.1451 23.2372C22.0266 23.3689 21.8553 23.4348 21.6839 23.4348C21.5127 23.4348 21.3414 23.3689 21.2229 23.2372L19.3516 21.3792C19.1013 21.1157 19.1013 20.7073 19.3516 20.4437L20.0896 19.7057H17.2037C17.1774 20.549 17.2301 21.3792 17.3883 22.2226ZM21.025 25.6354C21.025 25.2664 21.315 24.9766 21.6839 24.9766H24.3193C24.6883 24.9766 24.9781 25.2664 24.9781 25.6354V28.2708C24.9781 28.6397 24.6883 28.9297 24.3193 28.9297H21.6839C21.315 28.9297 21.025 28.6397 21.025 28.2708V25.6354Z" fill="currentColor"/>
            <path d="M21.6837 21.8404L22.6193 20.9048L21.6837 19.9824L20.748 20.9048L21.6837 21.8404Z" fill="currentColor"/>
            <path d="M22.3418 26.2943H23.6594V27.612H22.3418V26.2943Z" fill="currentColor"/>
            <path d="M17.1906 33.9677C17.3224 34.1389 17.52 34.2444 17.7307 34.2444H28.2724C28.4832 34.2444 28.6809 34.1389 28.8127 33.9677C28.9312 33.7965 28.9709 33.5723 28.8918 33.3747L28.312 31.5651H17.6912L17.1115 33.3747C17.0324 33.5723 17.0718 33.7965 17.1906 33.9677Z" fill="currentColor"/>
            <path d="M28.6809 18.388C28.4964 17.1625 28.1143 15.9502 27.5476 14.8037C27.4291 14.5798 27.2051 14.4348 26.9547 14.4348H25.9136L25.123 18.388H28.6809Z" fill="currentColor"/>
            <path d="M18.4554 14.8037C17.8888 15.9502 17.5067 17.1625 17.3223 18.388H23.779L24.5696 14.4348H19.0483C18.798 14.4348 18.5741 14.5798 18.4554 14.8037Z" fill="currentColor"/>
        </g>          
    </symbol>
    <symbol id="alkohol" viewBox="0 0 46 46" xmlns="http://www.w3.org/2000/svg">
        <g>
            <circle cx="23" cy="23" r="23"/>
            <path d="M22.8447 23.656C22.1282 23.656 21.5449 24.2475 21.5449 24.9741C21.5449 25.7008 22.1282 26.2921 22.8447 26.2921C23.5613 26.2921 24.1444 25.7008 24.1444 24.9741C24.1444 24.2475 23.5613 23.656 22.8447 23.656Z" fill="currentColor"/>
            <path d="M28.6938 21.0199H16.9961V28.9282H28.6938V21.0199ZM22.845 27.6102C21.4113 27.6102 20.2455 26.4278 20.2455 24.9741C20.2455 23.5202 21.4113 22.338 22.845 22.338C24.2787 22.338 25.4444 23.5202 25.4444 24.9741C25.4444 26.4278 24.2787 27.6102 22.845 27.6102Z" fill="currentColor"/>
            <path d="M28.6938 33.5853C28.6938 33.2211 28.4031 32.9263 28.0439 32.9263H27.6457L28.5121 30.2463H17.1778L18.0442 32.9263H17.646C17.2868 32.9263 16.9961 33.2211 16.9961 33.5853C16.9961 33.9496 17.2868 34.2444 17.646 34.2444H28.0439C28.4031 34.2444 28.6938 33.9496 28.6938 33.5853Z" fill="currentColor"/>
            <path d="M28.6938 16.3629C28.6938 15.9985 28.4031 15.7039 28.0439 15.7039H17.646C17.2868 15.7039 16.9961 15.9985 16.9961 16.3629C16.9961 16.7271 17.2868 17.0219 17.646 17.0219H18.0442L17.1778 19.7019H28.5121L27.6457 17.0219H28.0439C28.4031 17.0219 28.6938 16.7271 28.6938 16.3629Z" fill="currentColor"/>
            <path d="M20.7967 12.7681C20.4635 13.2367 20.3132 13.8296 20.3316 14.3856H25.3564C25.3749 13.8296 25.2243 13.2367 24.8913 12.7681C23.9305 11.418 21.7574 11.418 20.7967 12.7681Z" fill="currentColor"/>                              
        </g>          
    </symbol>
</svg>
